<svg width="30" height="30" viewBox="0 0 30 30" fill="none" xmlns="http://www.w3.org/2000/svg">
<path fill-rule="evenodd" clip-rule="evenodd" d="M14.9991 30C23.2849 30 30 23.2835 30 15C30 6.71646 23.2849 0 14.9991 0C6.71511 0 0 6.71646 0 15C0 23.2835 6.71511 30 14.9991 30ZM15.8785 15.8186L15.8203 15.8477C12.5501 17.4571 10.0268 21.5244 9.99418 21.5773C10.0174 21.5773 10.0376 21.5758 10.0589 21.5741L10.063 21.5738C10.4475 21.5429 12.3649 21.3444 14.0847 20.4476C15.5742 19.6689 17.2685 18.0551 17.4713 16.3486C17.503 16.0726 17.4563 15.8618 17.3337 15.7234C17.2235 15.5999 17.0602 15.5382 16.8468 15.5382C16.5805 15.5382 16.2365 15.637 15.8785 15.8186ZM16.4561 10.2689C17.6168 9.44082 19.1337 8.14968 19.7493 6.13548C19.7493 6.13548 16.741 9.06504 14.709 12.9931C15.0759 12.5924 15.3993 12.2728 15.6652 12.0099C16.1701 11.5108 16.4675 11.2168 16.4606 10.9638C16.4577 10.8509 16.416 10.7575 16.3786 10.6736C16.3128 10.5263 16.2605 10.4089 16.4561 10.2689ZM9.9334 22.0932C9.80907 22.1012 9.7385 22.102 9.73496 22.102C9.73496 22.102 9.36456 22.2308 9.23844 22.9566C9.16967 23.3552 8.97034 23.5271 8.0152 23.9398C7.897 23.9902 7.77267 24.0439 7.6421 24.1022C7.53722 24.1489 7.44985 24.0784 7.5443 23.9143C7.55378 23.8976 7.61096 23.7993 7.70637 23.6353C7.91272 23.2805 8.298 22.6183 8.76657 21.8083C8.43151 21.6487 8.16599 21.4512 8.02319 21.3022L8.19599 20.998C8.47387 21.1946 8.74371 21.3268 8.99506 21.4142C10.4123 18.9695 12.4046 15.5249 12.7477 14.8847C14.1323 12.2928 16.6838 7.97154 18.3683 6.48816C19.7229 5.29505 20.3289 5.10633 20.6234 5.47937C20.9806 5.92737 20.1622 7.5756 19.5166 8.41602C18.4371 9.81912 17.004 10.4779 17.004 10.4779C17.004 10.4779 17.7262 11.0123 16.308 12.4092C14.1143 14.5685 12.9963 16.4347 12.4414 17.3609C12.3824 17.4595 12.3298 17.5473 12.2829 17.6238C12.0307 18.0338 12.1215 18.0789 12.1718 18.0154C14.1279 15.9809 15.8795 14.8132 17.3285 14.8132C18.281 14.8132 18.8392 15.3397 18.8392 16.2578C18.8392 18.682 15.7331 20.4856 14.6413 20.9644C12.5669 21.8719 10.5604 22.0562 9.93436 22.0932H9.9334ZM9.20477 24.116L9.37494 23.8286H20.879L20.7106 24.116H9.20477Z" fill="#020817"/>
</svg>
