<svg width="30" height="29" viewBox="0 0 30 29" fill="none" xmlns="http://www.w3.org/2000/svg">
<path d="M15 0.000776728C11.0638 -0.0396932 7.27279 1.50274 4.46009 4.2891C1.6474 7.07546 0.043173 10.8777 0 14.8603C0.0151669 18.0077 1.01583 21.0692 2.85826 23.6051C4.7007 26.1411 7.2901 28.021 10.2545 28.9748C11.0045 29.1128 11.2773 28.6575 11.2773 28.2574C11.2773 27.8572 11.2773 26.9742 11.2773 25.7325C7.10455 26.6293 6.21818 23.7457 6.21818 23.7457C5.94041 22.8405 5.34986 22.0666 4.55455 21.5657C3.19091 20.6551 4.66364 20.6689 4.66364 20.6689C5.13498 20.7327 5.58593 20.9036 5.9827 21.1688C6.37945 21.434 6.71171 21.7868 6.95455 22.2004C7.37772 22.9428 8.07209 23.4875 8.8882 23.7171C9.7043 23.9468 10.5769 23.8431 11.3182 23.4284C11.3944 22.6728 11.7326 21.9689 12.2727 21.4416C8.94545 21.069 5.45455 19.7997 5.45455 14.1015C5.42479 12.6151 5.9676 11.1752 6.96818 10.0865C6.5125 8.81036 6.5663 7.40476 7.11818 6.16811C7.11818 6.16811 8.38636 5.76799 11.2091 7.68579C13.6662 7.02331 16.252 7.02331 18.7091 7.68579C21.5727 5.76799 22.8 6.16811 22.8 6.16811C23.3519 7.40476 23.4057 8.81036 22.95 10.0865C23.9738 11.1553 24.546 12.5854 24.5455 14.0739C24.5455 19.7859 21.0273 21.0414 17.7273 21.414C18.0886 21.769 18.3678 22.2004 18.5446 22.6776C18.7214 23.1548 18.7916 23.6655 18.75 24.1734V28.2436C18.75 28.2436 19.0227 29.1128 19.7727 28.961C22.7288 28.0013 25.3095 26.121 27.1462 23.5885C28.9829 21.0562 29.9817 18.0014 30 14.8603C29.9568 10.8777 28.3526 7.07546 25.54 4.2891C22.7272 1.50274 18.9361 -0.0396932 15 0.000776728Z" fill="#020817"/>
</svg>
