<svg width="30" height="30" viewBox="0 0 30 30" fill="none" xmlns="http://www.w3.org/2000/svg">
<path d="M27.7779 0H2.21458C0.992083 0 0 0.96875 0 2.16167V27.8354C0 29.03 0.992083 30 2.21458 30H27.7779C29.0012 30 30 29.03 30 27.8354V2.16167C30 0.96875 29.0012 0 27.7779 0ZM8.8975 25.5642H4.44583V11.2479H8.8975V25.5642ZM6.67167 9.29042C5.24542 9.29042 4.0925 8.13458 4.0925 6.70958C4.0925 5.28667 5.24542 4.13083 6.67167 4.13083C8.09458 4.13083 9.25042 5.28667 9.25042 6.70958C9.25042 8.13458 8.09458 9.29042 6.67167 9.29042ZM25.5625 25.5642H21.1179V18.6025C21.1179 16.9417 21.0854 14.8062 18.805 14.8062C16.4892 14.8062 16.1363 16.615 16.1363 18.4821V25.5646H11.6883V11.2479H15.9571V13.2029H16.0179C16.6121 12.0779 18.0637 10.8908 20.2287 10.8908C24.7312 10.8908 25.5629 13.855 25.5629 17.7112L25.5625 25.5642Z" fill="#020817"/>
</svg>
